<svg width="800" height="800" viewBox="0 0 800 800" fill="none" xmlns="http://www.w3.org/2000/svg">
<path d="M667.579 520.694V419.088C667.579 192.4 501.775 55.4753 432.426 8.1348C424.949 2.9863 413.954 0.0516544 402.381 0.000169422C390.764 -0.0255731 379.77 2.88333 372.158 7.98035C301.652 55.2178 132.51 192.194 132.51 419.088V520.72L100.061 533.359C37.5229 557.763 0 598.565 0 642.224V763.497C0 770.679 6.85473 777.321 17.8045 780.745C28.7988 784.143 42.1076 783.756 52.4342 779.741L157.837 739.145C187.437 727.767 222.155 721.666 257.72 721.666H335.214V780.436C335.214 791.248 350.348 800 368.998 800H431.047C449.697 800 464.831 791.248 464.831 780.436V721.666H542.28C577.844 721.666 612.608 727.715 642.252 739.17L747.566 779.741C757.892 783.756 771.201 784.143 782.195 780.745C793.145 777.321 800 770.679 800 763.497V642.224C800 598.616 762.432 557.815 699.939 533.359L667.579 520.694Z" fill="#100F2D"/>
<path d="M399.307 169.017C397.539 169.106 395.806 169.544 394.211 170.306L324.681 203.518C322.882 204.377 321.301 205.627 320.055 207.176C318.81 208.724 317.932 210.531 317.488 212.461L300.334 287.064C299.938 288.783 299.894 290.563 300.204 292.299C300.514 294.035 301.172 295.692 302.139 297.171C302.374 297.533 302.626 297.883 302.895 298.22L351.021 358.04C352.267 359.587 353.848 360.837 355.648 361.696C357.447 362.555 359.419 363 361.416 363L438.593 362.982C440.59 362.984 442.561 362.539 444.361 361.682C446.16 360.825 447.742 359.577 448.989 358.031L497.097 298.203C498.343 296.654 499.221 294.847 499.666 292.915C500.111 290.984 500.111 288.978 499.667 287.046L482.486 212.443C482.042 210.513 481.164 208.706 479.919 207.158C478.673 205.61 477.092 204.36 475.292 203.5L405.754 170.306C403.747 169.348 401.531 168.905 399.307 169.017Z" fill="#326CE5"/>
</svg>
